# xmcd CD database file
#
# Track frame offsets:
#	150
#	26999
#	42314
#	79539
#	109244
#	139444
#	155693
#	178815
#	198332
#	229293
#
# Disc length: 3252 seconds
#
# Revision: 0
# Processed by: cddbd v1.5.2PL0 Copyright (c) Steve Scherf et al.
# Submitted via: jetAudio 7
#
DISCID=8e0cb20a
DTITLE=兪遜發  - 天賴和鳴
DYEAR=1900
DGENRE=장르 없음
TTITLE0=牧笛
TTITLE1=梅花三弄
TTITLE2=琅琊神韵
TTITLE3=寒江殘雪
TTITLE4=音韵
TTITLE5=遠方的思念
TTITLE6=各裏幾嘛
TTITLE7=五供羊
TTITLE8=雨中蓮
TTITLE9=收割
EXTD=
EXTT0=
EXTT1=
EXTT2=
EXTT3=
EXTT4=
EXTT5=
EXTT6=
EXTT7=
EXTT8=
EXTT9=
PLAYORDER=
